<mxfile host="Electron" agent="Mozilla/5.0 (Windows NT 10.0; Win64; x64) AppleWebKit/537.36 (KHTML, like Gecko) draw.io/27.0.2 Chrome/134.0.6998.205 Electron/35.3.0 Safari/537.36" version="27.0.2">
  <diagram name="Page-1" id="OblXjyoh9Lz7Lbshdh0m">
    <mxGraphModel dx="1426" dy="841" grid="1" gridSize="10" guides="1" tooltips="1" connect="1" arrows="1" fold="1" page="1" pageScale="1" pageWidth="827" pageHeight="1169" math="0" shadow="0">
      <root>
        <mxCell id="0" />
        <mxCell id="1" parent="0" />
        <mxCell id="a4om-_xt6SoV8xX5kkT--5" style="edgeStyle=orthogonalEdgeStyle;rounded=0;orthogonalLoop=1;jettySize=auto;html=1;exitX=0;exitY=0.75;exitDx=0;exitDy=0;entryX=0.5;entryY=0;entryDx=0;entryDy=0;strokeWidth=2;" edge="1" parent="1" source="a4om-_xt6SoV8xX5kkT--1" target="a4om-_xt6SoV8xX5kkT--2">
          <mxGeometry relative="1" as="geometry" />
        </mxCell>
        <mxCell id="a4om-_xt6SoV8xX5kkT--9" style="edgeStyle=orthogonalEdgeStyle;rounded=0;orthogonalLoop=1;jettySize=auto;html=1;exitX=1;exitY=0.75;exitDx=0;exitDy=0;entryX=0.5;entryY=0;entryDx=0;entryDy=0;strokeWidth=2;" edge="1" parent="1" source="a4om-_xt6SoV8xX5kkT--1" target="a4om-_xt6SoV8xX5kkT--3">
          <mxGeometry relative="1" as="geometry" />
        </mxCell>
        <mxCell id="a4om-_xt6SoV8xX5kkT--1" value="Domain" style="rounded=1;whiteSpace=wrap;html=1;fontSize=18;fillColor=#e1d5e7;strokeColor=#000000;" vertex="1" parent="1">
          <mxGeometry x="320" y="40" width="120" height="60" as="geometry" />
        </mxCell>
        <mxCell id="a4om-_xt6SoV8xX5kkT--4" style="edgeStyle=orthogonalEdgeStyle;rounded=0;orthogonalLoop=1;jettySize=auto;html=1;exitX=0.25;exitY=0;exitDx=0;exitDy=0;entryX=0;entryY=0.25;entryDx=0;entryDy=0;strokeWidth=2;" edge="1" parent="1" source="a4om-_xt6SoV8xX5kkT--2" target="a4om-_xt6SoV8xX5kkT--1">
          <mxGeometry relative="1" as="geometry" />
        </mxCell>
        <mxCell id="a4om-_xt6SoV8xX5kkT--6" style="edgeStyle=orthogonalEdgeStyle;rounded=0;orthogonalLoop=1;jettySize=auto;html=1;exitX=1;exitY=0.25;exitDx=0;exitDy=0;entryX=0;entryY=0.25;entryDx=0;entryDy=0;strokeWidth=2;" edge="1" parent="1" source="a4om-_xt6SoV8xX5kkT--2" target="a4om-_xt6SoV8xX5kkT--3">
          <mxGeometry relative="1" as="geometry" />
        </mxCell>
        <mxCell id="a4om-_xt6SoV8xX5kkT--2" value="Community" style="rounded=1;whiteSpace=wrap;html=1;fontSize=18;fillColor=#dae8fc;strokeColor=#000000;" vertex="1" parent="1">
          <mxGeometry x="120" y="200" width="120" height="60" as="geometry" />
        </mxCell>
        <mxCell id="a4om-_xt6SoV8xX5kkT--7" style="edgeStyle=orthogonalEdgeStyle;rounded=0;orthogonalLoop=1;jettySize=auto;html=1;exitX=0;exitY=0.75;exitDx=0;exitDy=0;entryX=1;entryY=0.75;entryDx=0;entryDy=0;strokeWidth=2;" edge="1" parent="1" source="a4om-_xt6SoV8xX5kkT--3" target="a4om-_xt6SoV8xX5kkT--2">
          <mxGeometry relative="1" as="geometry" />
        </mxCell>
        <mxCell id="a4om-_xt6SoV8xX5kkT--8" style="edgeStyle=orthogonalEdgeStyle;rounded=0;orthogonalLoop=1;jettySize=auto;html=1;exitX=0.75;exitY=0;exitDx=0;exitDy=0;entryX=1;entryY=0.25;entryDx=0;entryDy=0;strokeWidth=2;" edge="1" parent="1" source="a4om-_xt6SoV8xX5kkT--3" target="a4om-_xt6SoV8xX5kkT--1">
          <mxGeometry relative="1" as="geometry" />
        </mxCell>
        <mxCell id="a4om-_xt6SoV8xX5kkT--3" value="Practice" style="rounded=1;whiteSpace=wrap;html=1;fontSize=18;fillColor=#d5e8d4;strokeColor=#000000;" vertex="1" parent="1">
          <mxGeometry x="520" y="200" width="120" height="60" as="geometry" />
        </mxCell>
        <mxCell id="a4om-_xt6SoV8xX5kkT--10" value="Shows&lt;div&gt;interes in&lt;/div&gt;" style="text;html=1;align=center;verticalAlign=middle;resizable=0;points=[];autosize=1;strokeColor=none;fillColor=none;fontSize=15;" vertex="1" parent="1">
          <mxGeometry x="70" y="115" width="80" height="50" as="geometry" />
        </mxCell>
        <mxCell id="a4om-_xt6SoV8xX5kkT--11" value="Offers&lt;div&gt;value to&lt;/div&gt;" style="text;html=1;align=center;verticalAlign=middle;resizable=0;points=[];autosize=1;strokeColor=none;fillColor=none;fontSize=16;" vertex="1" parent="1">
          <mxGeometry x="190" y="115" width="80" height="50" as="geometry" />
        </mxCell>
        <mxCell id="a4om-_xt6SoV8xX5kkT--12" value="Wants mastery of" style="text;html=1;align=center;verticalAlign=middle;resizable=0;points=[];autosize=1;strokeColor=none;fillColor=none;fontSize=16;" vertex="1" parent="1">
          <mxGeometry x="305" y="180" width="150" height="30" as="geometry" />
        </mxCell>
        <mxCell id="a4om-_xt6SoV8xX5kkT--14" value="Evolves thanks to" style="text;html=1;align=center;verticalAlign=middle;resizable=0;points=[];autosize=1;strokeColor=none;fillColor=none;fontSize=16;" vertex="1" parent="1">
          <mxGeometry x="305" y="250" width="150" height="30" as="geometry" />
        </mxCell>
        <mxCell id="a4om-_xt6SoV8xX5kkT--15" value="Shapes" style="text;html=1;align=center;verticalAlign=middle;resizable=0;points=[];autosize=1;strokeColor=none;fillColor=none;fontSize=16;" vertex="1" parent="1">
          <mxGeometry x="500" y="125" width="80" height="30" as="geometry" />
        </mxCell>
        <mxCell id="a4om-_xt6SoV8xX5kkT--16" value="Keeps&lt;div&gt;alive&lt;/div&gt;" style="text;html=1;align=center;verticalAlign=middle;resizable=0;points=[];autosize=1;strokeColor=none;fillColor=none;fontSize=16;" vertex="1" parent="1">
          <mxGeometry x="615" y="115" width="70" height="50" as="geometry" />
        </mxCell>
      </root>
    </mxGraphModel>
  </diagram>
</mxfile>
